<svg viewBox="0 0 512 512" xmlns="http://www.w3.org/2000/svg">
<path d="M256,413.795c-9.512,0-17.251-7.739-17.251-17.252c0-9.513,7.739-17.252,17.251-17.252c9.513,0,17.252,7.738,17.252,17.252    C273.251,406.055,265.512,413.795,256,413.795z M256,391.291c-2.896,0-5.252,2.355-5.252,5.252c0,2.896,2.355,5.252,5.252,5.252c2.896,0,5.251-2.355,5.251-5.252    C261.251,393.646,258.896,391.291,256,391.291z" fill="currentColor"/>
<path d="M230.99,252.542l-7.926,50.653l11.855,1.855l8.073-51.593v-0.467c0-26.563-21.611-48.175-48.175-48.175h-23.643v-32.349    h123.706v-12H171.176v-12H340.824v12h32.604v32.349H317.18c-26.563,0-48.174,21.611-48.174,48.175v0.467    l10.104,64.567c3.896,24.9,2.142,87.662-4.6,111.036l-0.648,2.268c-1.76,6.197-4.709,16.569-8.436,25.8    c-5.188,12.849-8.65,15.326-9.427,15.74c-0.775-0.414-4.237-2.891-9.427-15.743c-3.728-9.231-6.675-19.604-8.436-25.801    l-0.646-2.264c-6.743-23.374-8.498-86.136-4.602-111.036" fill="currentColor"/>
</svg>
